# xmcd
#
# Track frame offsets:
#	150
#	9368
#	24411
#	38201
#	49287
#	59237
#	77644
#	88762
#	99160
#	115824
#	131206
#	142352
#	155727
#	169600
#	184044
#	195287
#	209621
#	220532
#	228933
#	243057
#	259247
#
# Disc length: 3607 seconds
# Revision: 0
# Processed by: cddbd v1.5.2PL0 Copyright (c) Steve Scherf et al.
# Submitted via: dBpowerAMP V12.0
#
DISCID=240e1515
DTITLE=Trails and Rails - Water, Weeds and Ghosts
DYEAR=2008
DGENRE=Western
TTITLE0=Back in the Saddle
TTITLE1=Streets of Laredo
TTITLE2=Riding Down the Canyon
TTITLE3=Cattle Call
TTITLE4=Tumbling Tumbleweeds
TTITLE5=Cowboy Medley
TTITLE6=Ragtime Cowboy Joe
TTITLE7=I'm an Old Cowhand
TTITLE8=Cool Water
TTITLE9=Medley of the West [Instrumental]
TTITLE10=Blue Prairie
TTITLE11=Along the Navajo Trail
TTITLE12=Blue Shadows on the Trail
TTITLE13=Ghost Riders in the Sky
TTITLE14=Don't Fence Me In
TTITLE15=Red River Valley
TTITLE16=When the Bloom is on the Sage
TTITLE17=Empty Saddles
TTITLE18=Along the Santa Fe Trail
TTITLE19=Home on the Range
TTITLE20=Happy Trails
EXTD=
EXTT0=
EXTT1=
EXTT2=
EXTT3=
EXTT4=
EXTT5=
EXTT6=
EXTT7=
EXTT8=
EXTT9=
EXTT10=
EXTT11=
EXTT12=
EXTT13=
EXTT14=
EXTT15=
EXTT16=
EXTT17=
EXTT18=
EXTT19=
EXTT20=
PLAYORDER=
